<svg xmlns="http://www.w3.org/2000/svg" width="980" height="920" viewBox="0 0 980 920">
<rect width="100%" height="100%" fill="#F7F5F0"/>
<text x="28.0" y="28.0" fill="#1F2937" font-size="22" font-family="Segoe UI, Calibri, Arial, sans-serif" font-weight="600" text-anchor="start" dominant-baseline="central">School SMS — leave approval flow</text>
<text x="28.0" y="52.0" fill="#6B7280" font-size="13" font-family="Segoe UI, Calibri, Arial, sans-serif" font-weight="400" text-anchor="start" dominant-baseline="central">Two-step chain: request → HR review → Headteacher approve/reject.</text>
<path d="M28.0,70.0 L952.0,70.0" fill="none" stroke="#E5E1D8" stroke-width="1" stroke-linejoin="round" stroke-linecap="round"/>
<path d="M530.0,138.0 L530.0,154.0 L530.0,154.0 L530.0,170.0" fill="none" stroke="#374151" stroke-width="1.7" stroke-linejoin="round" stroke-linecap="round"/>
<polygon points="530.0,170.0 526.5,161.7 533.5,161.7" fill="#374151" stroke="#374151" stroke-width="1"/>
<path d="M530.0,226.0 L530.0,243.0 L530.0,243.0 L530.0,260.0" fill="none" stroke="#374151" stroke-width="1.7" stroke-linejoin="round" stroke-linecap="round"/>
<polygon points="530.0,260.0 526.5,251.7 533.5,251.7" fill="#374151" stroke="#374151" stroke-width="1"/>
<path d="M530.0,308.0 L530.0,324.0 L530.0,324.0 L530.0,340.0" fill="none" stroke="#374151" stroke-width="1.7" stroke-linejoin="round" stroke-linecap="round"/>
<polygon points="530.0,340.0 526.5,331.7 533.5,331.7" fill="#374151" stroke="#374151" stroke-width="1"/>
<path d="M420.0,380.0 L260.0,380.0 L260.0,440.0 L260.0,460.0" fill="none" stroke="#374151" stroke-width="1.7" stroke-linejoin="round" stroke-linecap="round"/>
<polygon points="260.0,460.0 256.5,451.7 263.5,451.7" fill="#374151" stroke="#374151" stroke-width="1"/>
<rect x="232.0" y="398.0" width="56.0" height="22.0" rx="4" fill="#FFFFFF" stroke="#FFFFFF" stroke-width="0"/>
<text x="260.0" y="410.0" fill="#6B3F1D" font-size="11" font-family="Segoe UI, Calibri, Arial, sans-serif" font-weight="600" text-anchor="middle" dominant-baseline="central">Forward</text>
<path d="M640.0,380.0 L670.0,380.0 L670.0,484.0 L700.0,484.0" fill="none" stroke="#374151" stroke-width="1.7" stroke-linejoin="round" stroke-linecap="round"/>
<polygon points="700.0,484.0 691.7,487.5 691.7,480.5" fill="#374151" stroke="#374151" stroke-width="1"/>
<rect x="642.0" y="420.0" width="56.0" height="22.0" rx="4" fill="#FFFFFF" stroke="#FFFFFF" stroke-width="0"/>
<text x="670.0" y="432.0" fill="#6B3F1D" font-size="11" font-family="Segoe UI, Calibri, Arial, sans-serif" font-weight="600" text-anchor="middle" dominant-baseline="central">Reject</text>
<path d="M260.0,516.0 L260.0,538.0 L260.0,538.0 L260.0,560.0" fill="none" stroke="#374151" stroke-width="1.7" stroke-linejoin="round" stroke-linecap="round"/>
<polygon points="260.0,560.0 256.5,551.7 263.5,551.7" fill="#374151" stroke="#374151" stroke-width="1"/>
<path d="M260.0,616.0 L260.0,638.0 L260.0,638.0 L260.0,660.0" fill="none" stroke="#374151" stroke-width="1.7" stroke-linejoin="round" stroke-linecap="round"/>
<polygon points="260.0,660.0 256.5,651.7 263.5,651.7" fill="#374151" stroke="#374151" stroke-width="1"/>
<path d="M260.0,740.0 L260.0,808.0 L420.0,808.0 L420.0,808.0" fill="none" stroke="#374151" stroke-width="1.7" stroke-linejoin="round" stroke-linecap="round"/>
<polygon points="420.0,808.0 411.7,811.5 411.7,804.5" fill="#374151" stroke="#374151" stroke-width="1"/>
<rect x="312.0" y="796.0" width="56.0" height="22.0" rx="4" fill="#FFFFFF" stroke="#FFFFFF" stroke-width="0"/>
<text x="340.0" y="808.0" fill="#6B3F1D" font-size="11" font-family="Segoe UI, Calibri, Arial, sans-serif" font-weight="600" text-anchor="middle" dominant-baseline="central">Approve</text>
<path d="M370.0,700.0 L535.0,700.0 L535.0,708.0 L700.0,708.0" fill="none" stroke="#374151" stroke-width="1.7" stroke-linejoin="round" stroke-linecap="round"/>
<polygon points="700.0,708.0 691.7,711.5 691.7,704.5" fill="#374151" stroke="#374151" stroke-width="1"/>
<rect x="507.0" y="692.0" width="56.0" height="22.0" rx="4" fill="#FFFFFF" stroke="#FFFFFF" stroke-width="0"/>
<text x="535.0" y="704.0" fill="#6B3F1D" font-size="11" font-family="Segoe UI, Calibri, Arial, sans-serif" font-weight="600" text-anchor="middle" dominant-baseline="central">Reject</text>
<ellipse cx="530.0" cy="114.0" rx="90.0" ry="24.0" fill="#0E4D4A" stroke="#0E4D4A" stroke-width="1.5"/>
<text x="530.0" y="114.0" fill="#FFFFFF" font-size="13" font-family="Segoe UI, Calibri, Arial, sans-serif" font-weight="600" text-anchor="middle" dominant-baseline="central">Staff needs leave</text>
<polygon points="428.0,170.0 650.0,170.0 632.0,226.0 410.0,226.0" fill="#3D2D56" stroke="#3D2D56" stroke-width="1.5"/>
<text x="530.0" y="190.5" fill="#FFFFFF" font-size="12" font-family="Segoe UI, Calibri, Arial, sans-serif" font-weight="600" text-anchor="middle" dominant-baseline="central">Submit leave request</text>
<text x="530.0" y="205.5" fill="#FFFFFF" font-size="12" font-family="Segoe UI, Calibri, Arial, sans-serif" font-weight="600" text-anchor="middle" dominant-baseline="central">(Teacher / HR)</text>
<rect x="430.0" y="260.0" width="200.0" height="48.0" rx="10" fill="#1B365D" stroke="#1B365D" stroke-width="1.5"/>
<text x="530.0" y="284.0" fill="#FFFFFF" font-size="13" font-family="Segoe UI, Calibri, Arial, sans-serif" font-weight="600" text-anchor="middle" dominant-baseline="central">Status: pending_hr</text>
<polygon points="530.0,340.0 640.0,380.0 530.0,420.0 420.0,380.0" fill="#6B3F1D" stroke="#6B3F1D" stroke-width="1.5"/>
<text x="530.0" y="380.0" fill="#FFFFFF" font-size="12" font-family="Segoe UI, Calibri, Arial, sans-serif" font-weight="600" text-anchor="middle" dominant-baseline="central">HR review?</text>
<rect x="160.0" y="460.0" width="200.0" height="56.0" rx="10" fill="#1B365D" stroke="#1B365D" stroke-width="1.5"/>
<text x="260.0" y="480.5" fill="#FFFFFF" font-size="13" font-family="Segoe UI, Calibri, Arial, sans-serif" font-weight="600" text-anchor="middle" dominant-baseline="central">Forward to</text>
<text x="260.0" y="495.5" fill="#FFFFFF" font-size="13" font-family="Segoe UI, Calibri, Arial, sans-serif" font-weight="600" text-anchor="middle" dominant-baseline="central">Headteacher</text>
<ellipse cx="790.0" cy="484.0" rx="90.0" ry="24.0" fill="#374151" stroke="#374151" stroke-width="1.5"/>
<text x="790.0" y="484.0" fill="#FFFFFF" font-size="13" font-family="Segoe UI, Calibri, Arial, sans-serif" font-weight="600" text-anchor="middle" dominant-baseline="central">Rejected by HR</text>
<rect x="160.0" y="560.0" width="200.0" height="56.0" rx="10" fill="#1B365D" stroke="#1B365D" stroke-width="1.5"/>
<text x="260.0" y="580.5" fill="#FFFFFF" font-size="13" font-family="Segoe UI, Calibri, Arial, sans-serif" font-weight="600" text-anchor="middle" dominant-baseline="central">Status:</text>
<text x="260.0" y="595.5" fill="#FFFFFF" font-size="13" font-family="Segoe UI, Calibri, Arial, sans-serif" font-weight="600" text-anchor="middle" dominant-baseline="central">pending_headteacher</text>
<polygon points="260.0,660.0 370.0,700.0 260.0,740.0 150.0,700.0" fill="#6B3F1D" stroke="#6B3F1D" stroke-width="1.5"/>
<text x="260.0" y="692.5" fill="#FFFFFF" font-size="12" font-family="Segoe UI, Calibri, Arial, sans-serif" font-weight="600" text-anchor="middle" dominant-baseline="central">Headteacher</text>
<text x="260.0" y="707.5" fill="#FFFFFF" font-size="12" font-family="Segoe UI, Calibri, Arial, sans-serif" font-weight="600" text-anchor="middle" dominant-baseline="central">decision?</text>
<ellipse cx="520.0" cy="808.0" rx="100.0" ry="28.0" fill="#374151" stroke="#374151" stroke-width="1.5"/>
<text x="520.0" y="800.5" fill="#FFFFFF" font-size="13" font-family="Segoe UI, Calibri, Arial, sans-serif" font-weight="600" text-anchor="middle" dominant-baseline="central">Approved</text>
<text x="520.0" y="815.5" fill="#FFFFFF" font-size="13" font-family="Segoe UI, Calibri, Arial, sans-serif" font-weight="600" text-anchor="middle" dominant-baseline="central">payroll notified</text>
<ellipse cx="790.0" cy="708.0" rx="90.0" ry="28.0" fill="#374151" stroke="#374151" stroke-width="1.5"/>
<text x="790.0" y="700.5" fill="#FFFFFF" font-size="13" font-family="Segoe UI, Calibri, Arial, sans-serif" font-weight="600" text-anchor="middle" dominant-baseline="central">Rejected by</text>
<text x="790.0" y="715.5" fill="#FFFFFF" font-size="13" font-family="Segoe UI, Calibri, Arial, sans-serif" font-weight="600" text-anchor="middle" dominant-baseline="central">Headteacher</text>
<rect x="28.0" y="842.0" width="620.0" height="58.0" rx="6" fill="#FFFFFF" stroke="#C4C0B8" stroke-width="1"/>
<text x="42.0" y="858.0" fill="#6B7280" font-size="11" font-family="Segoe UI, Calibri, Arial, sans-serif" font-weight="600" text-anchor="start" dominant-baseline="central">Notation</text>
<rect x="42.0" y="876.0" width="14.0" height="14.0" rx="3" fill="#0E4D4A" stroke="#0E4D4A" stroke-width="0"/>
<text x="64.0" y="883.0" fill="#1F2937" font-size="12" font-family="Segoe UI, Calibri, Arial, sans-serif" font-weight="400" text-anchor="start" dominant-baseline="central">Start / end</text>
<rect x="187.0" y="876.0" width="14.0" height="14.0" rx="3" fill="#1B365D" stroke="#1B365D" stroke-width="0"/>
<text x="209.0" y="883.0" fill="#1F2937" font-size="12" font-family="Segoe UI, Calibri, Arial, sans-serif" font-weight="400" text-anchor="start" dominant-baseline="central">Process</text>
<rect x="332.0" y="876.0" width="14.0" height="14.0" rx="3" fill="#6B3F1D" stroke="#6B3F1D" stroke-width="0"/>
<text x="354.0" y="883.0" fill="#1F2937" font-size="12" font-family="Segoe UI, Calibri, Arial, sans-serif" font-weight="400" text-anchor="start" dominant-baseline="central">Decision</text>
<rect x="477.0" y="876.0" width="14.0" height="14.0" rx="3" fill="#3D2D56" stroke="#3D2D56" stroke-width="0"/>
<text x="499.0" y="883.0" fill="#1F2937" font-size="12" font-family="Segoe UI, Calibri, Arial, sans-serif" font-weight="400" text-anchor="start" dominant-baseline="central">Input / output</text>
<text x="28.0" y="820.0" fill="#6B7280" font-size="12" font-family="Segoe UI, Calibri, Arial, sans-serif" font-weight="400" text-anchor="start" dominant-baseline="central">Teachers see only their own requests. Super Admin may act on either desk.</text>
<text x="952.0" y="892.0" fill="#6B7280" font-size="11" font-family="Segoe UI, Calibri, Arial, sans-serif" font-weight="400" text-anchor="end" dominant-baseline="central">School SMS · process flowcharts</text>
</svg>
