<svg xmlns="http://www.w3.org/2000/svg" width="1040" height="1000" viewBox="0 0 1040 1000">
<rect width="100%" height="100%" fill="#F7F5F0"/>
<text x="28.0" y="28.0" fill="#1F2937" font-size="22" font-family="Segoe UI, Calibri, Arial, sans-serif" font-weight="600" text-anchor="start" dominant-baseline="central">School SMS — parent messaging flow</text>
<text x="28.0" y="52.0" fill="#6B7280" font-size="13" font-family="Segoe UI, Calibri, Arial, sans-serif" font-weight="400" text-anchor="start" dominant-baseline="central">Register household → compose → deliver by email and/or WhatsApp → parent inbox.</text>
<path d="M28.0,70.0 L1012.0,70.0" fill="none" stroke="#E5E1D8" stroke-width="1" stroke-linejoin="round" stroke-linecap="round"/>
<path d="M530.0,138.0 L530.0,154.0 L530.0,154.0 L530.0,170.0" fill="none" stroke="#374151" stroke-width="1.7" stroke-linejoin="round" stroke-linecap="round"/>
<polygon points="530.0,170.0 526.5,161.7 533.5,161.7" fill="#374151" stroke="#374151" stroke-width="1"/>
<path d="M410.0,210.0 L200.0,210.0 L200.0,280.0 L200.0,300.0" fill="none" stroke="#374151" stroke-width="1.7" stroke-linejoin="round" stroke-linecap="round"/>
<polygon points="200.0,300.0 196.5,291.7 203.5,291.7" fill="#374151" stroke="#374151" stroke-width="1"/>
<rect x="172.0" y="233.0" width="56.0" height="22.0" rx="4" fill="#FFFFFF" stroke="#FFFFFF" stroke-width="0"/>
<text x="200.0" y="245.0" fill="#6B3F1D" font-size="11" font-family="Segoe UI, Calibri, Arial, sans-serif" font-weight="600" text-anchor="middle" dominant-baseline="central">No</text>
<path d="M530.0,250.0 L530.0,285.0 L540.0,285.0 L540.0,320.0" fill="none" stroke="#374151" stroke-width="1.7" stroke-linejoin="round" stroke-linecap="round"/>
<polygon points="540.0,320.0 536.5,311.7 543.5,311.7" fill="#374151" stroke="#374151" stroke-width="1"/>
<rect x="507.0" y="273.0" width="56.0" height="22.0" rx="4" fill="#FFFFFF" stroke="#FFFFFF" stroke-width="0"/>
<text x="535.0" y="285.0" fill="#6B3F1D" font-size="11" font-family="Segoe UI, Calibri, Arial, sans-serif" font-weight="600" text-anchor="middle" dominant-baseline="central">Yes</text>
<path d="M320.0,328.0 L370.0,328.0 L370.0,348.0 L420.0,348.0" fill="none" stroke="#374151" stroke-width="1.7" stroke-linejoin="round" stroke-linecap="round"/>
<polygon points="420.0,348.0 411.7,351.5 411.7,344.5" fill="#374151" stroke="#374151" stroke-width="1"/>
<path d="M540.0,376.0 L540.0,403.0 L530.0,403.0 L530.0,430.0" fill="none" stroke="#374151" stroke-width="1.7" stroke-linejoin="round" stroke-linecap="round"/>
<polygon points="530.0,430.0 526.5,421.7 533.5,421.7" fill="#374151" stroke="#374151" stroke-width="1"/>
<path d="M430.0,470.0 L260.0,470.0 L260.0,540.0 L260.0,560.0" fill="none" stroke="#374151" stroke-width="1.7" stroke-linejoin="round" stroke-linecap="round"/>
<polygon points="260.0,560.0 256.5,551.7 263.5,551.7" fill="#374151" stroke="#374151" stroke-width="1"/>
<rect x="232.0" y="493.0" width="56.0" height="22.0" rx="4" fill="#FFFFFF" stroke="#FFFFFF" stroke-width="0"/>
<text x="260.0" y="505.0" fill="#6B3F1D" font-size="11" font-family="Segoe UI, Calibri, Arial, sans-serif" font-weight="600" text-anchor="middle" dominant-baseline="central">Email</text>
<path d="M630.0,470.0 L800.0,470.0 L800.0,540.0 L800.0,560.0" fill="none" stroke="#374151" stroke-width="1.7" stroke-linejoin="round" stroke-linecap="round"/>
<polygon points="800.0,560.0 796.5,551.7 803.5,551.7" fill="#374151" stroke="#374151" stroke-width="1"/>
<rect x="772.0" y="493.0" width="56.0" height="22.0" rx="4" fill="#FFFFFF" stroke="#FFFFFF" stroke-width="0"/>
<text x="800.0" y="505.0" fill="#6B3F1D" font-size="11" font-family="Segoe UI, Calibri, Arial, sans-serif" font-weight="600" text-anchor="middle" dominant-baseline="central">WhatsApp</text>
<path d="M260.0,610.0 L260.0,698.0 L400.0,698.0 L400.0,698.0" fill="none" stroke="#374151" stroke-width="1.7" stroke-linejoin="round" stroke-linecap="round"/>
<polygon points="400.0,698.0 391.7,701.5 391.7,694.5" fill="#374151" stroke="#374151" stroke-width="1"/>
<path d="M800.0,610.0 L800.0,698.0 L660.0,698.0 L660.0,698.0" fill="none" stroke="#374151" stroke-width="1.7" stroke-linejoin="round" stroke-linecap="round"/>
<polygon points="660.0,698.0 651.7,701.5 651.7,694.5" fill="#374151" stroke="#374151" stroke-width="1"/>
<path d="M530.0,726.0 L530.0,753.0 L540.0,753.0 L540.0,780.0" fill="none" stroke="#374151" stroke-width="1.7" stroke-linejoin="round" stroke-linecap="round"/>
<polygon points="540.0,780.0 536.5,771.7 543.5,771.7" fill="#374151" stroke="#374151" stroke-width="1"/>
<path d="M540.0,836.0 L540.0,858.0 L540.0,858.0 L540.0,880.0" fill="none" stroke="#374151" stroke-width="1.7" stroke-linejoin="round" stroke-linecap="round"/>
<polygon points="540.0,880.0 536.5,871.7 543.5,871.7" fill="#374151" stroke="#374151" stroke-width="1"/>
<ellipse cx="530.0" cy="114.0" rx="110.0" ry="24.0" fill="#0E4D4A" stroke="#0E4D4A" stroke-width="1.5"/>
<text x="530.0" y="114.0" fill="#FFFFFF" font-size="13" font-family="Segoe UI, Calibri, Arial, sans-serif" font-weight="600" text-anchor="middle" dominant-baseline="central">Need to notify parents</text>
<polygon points="530.0,170.0 650.0,210.0 530.0,250.0 410.0,210.0" fill="#6B3F1D" stroke="#6B3F1D" stroke-width="1.5"/>
<text x="530.0" y="202.5" fill="#FFFFFF" font-size="12" font-family="Segoe UI, Calibri, Arial, sans-serif" font-weight="600" text-anchor="middle" dominant-baseline="central">Parent account</text>
<text x="530.0" y="217.5" fill="#FFFFFF" font-size="12" font-family="Segoe UI, Calibri, Arial, sans-serif" font-weight="600" text-anchor="middle" dominant-baseline="central">exists?</text>
<rect x="80.0" y="300.0" width="240.0" height="56.0" rx="10" fill="#1B365D" stroke="#1B365D" stroke-width="1.5"/>
<text x="200.0" y="320.5" fill="#FFFFFF" font-size="13" font-family="Segoe UI, Calibri, Arial, sans-serif" font-weight="600" text-anchor="middle" dominant-baseline="central">HR / Head registers</text>
<text x="200.0" y="335.5" fill="#FFFFFF" font-size="13" font-family="Segoe UI, Calibri, Arial, sans-serif" font-weight="600" text-anchor="middle" dominant-baseline="central">parent + link wards</text>
<polygon points="438.0,320.0 660.0,320.0 642.0,376.0 420.0,376.0" fill="#3D2D56" stroke="#3D2D56" stroke-width="1.5"/>
<text x="540.0" y="340.5" fill="#FFFFFF" font-size="12" font-family="Segoe UI, Calibri, Arial, sans-serif" font-weight="600" text-anchor="middle" dominant-baseline="central">Compose notice / meeting</text>
<text x="540.0" y="355.5" fill="#FFFFFF" font-size="12" font-family="Segoe UI, Calibri, Arial, sans-serif" font-weight="600" text-anchor="middle" dominant-baseline="central">or broadcast</text>
<polygon points="530.0,430.0 630.0,470.0 530.0,510.0 430.0,470.0" fill="#6B3F1D" stroke="#6B3F1D" stroke-width="1.5"/>
<text x="530.0" y="470.0" fill="#FFFFFF" font-size="12" font-family="Segoe UI, Calibri, Arial, sans-serif" font-weight="600" text-anchor="middle" dominant-baseline="central">Channels?</text>
<rect x="160.0" y="560.0" width="200.0" height="50.0" rx="10" fill="#1B365D" stroke="#1B365D" stroke-width="1.5"/>
<text x="260.0" y="585.0" fill="#FFFFFF" font-size="13" font-family="Segoe UI, Calibri, Arial, sans-serif" font-weight="600" text-anchor="middle" dominant-baseline="central">Deliver via Email</text>
<rect x="700.0" y="560.0" width="200.0" height="50.0" rx="10" fill="#1B365D" stroke="#1B365D" stroke-width="1.5"/>
<text x="800.0" y="585.0" fill="#FFFFFF" font-size="13" font-family="Segoe UI, Calibri, Arial, sans-serif" font-weight="600" text-anchor="middle" dominant-baseline="central">Deliver via WhatsApp</text>
<rect x="400.0" y="670.0" width="260.0" height="56.0" rx="10" fill="#1B365D" stroke="#1B365D" stroke-width="1.5"/>
<text x="530.0" y="690.5" fill="#FFFFFF" font-size="13" font-family="Segoe UI, Calibri, Arial, sans-serif" font-weight="600" text-anchor="middle" dominant-baseline="central">Update recipient status</text>
<text x="530.0" y="705.5" fill="#FFFFFF" font-size="13" font-family="Segoe UI, Calibri, Arial, sans-serif" font-weight="600" text-anchor="middle" dominant-baseline="central">&amp; in-app notification</text>
<polygon points="438.0,780.0 660.0,780.0 642.0,836.0 420.0,836.0" fill="#3D2D56" stroke="#3D2D56" stroke-width="1.5"/>
<text x="540.0" y="800.5" fill="#FFFFFF" font-size="12" font-family="Segoe UI, Calibri, Arial, sans-serif" font-weight="600" text-anchor="middle" dominant-baseline="central">Parent views inbox</text>
<text x="540.0" y="815.5" fill="#FFFFFF" font-size="12" font-family="Segoe UI, Calibri, Arial, sans-serif" font-weight="600" text-anchor="middle" dominant-baseline="central">/ dashboard notice</text>
<ellipse cx="540.0" cy="904.0" rx="90.0" ry="24.0" fill="#374151" stroke="#374151" stroke-width="1.5"/>
<text x="540.0" y="904.0" fill="#FFFFFF" font-size="13" font-family="Segoe UI, Calibri, Arial, sans-serif" font-weight="600" text-anchor="middle" dominant-baseline="central">Delivery complete</text>
<rect x="28.0" y="922.0" width="620.0" height="58.0" rx="6" fill="#FFFFFF" stroke="#C4C0B8" stroke-width="1"/>
<text x="42.0" y="938.0" fill="#6B7280" font-size="11" font-family="Segoe UI, Calibri, Arial, sans-serif" font-weight="600" text-anchor="start" dominant-baseline="central">Notation</text>
<rect x="42.0" y="956.0" width="14.0" height="14.0" rx="3" fill="#0E4D4A" stroke="#0E4D4A" stroke-width="0"/>
<text x="64.0" y="963.0" fill="#1F2937" font-size="12" font-family="Segoe UI, Calibri, Arial, sans-serif" font-weight="400" text-anchor="start" dominant-baseline="central">Start / end</text>
<rect x="187.0" y="956.0" width="14.0" height="14.0" rx="3" fill="#1B365D" stroke="#1B365D" stroke-width="0"/>
<text x="209.0" y="963.0" fill="#1F2937" font-size="12" font-family="Segoe UI, Calibri, Arial, sans-serif" font-weight="400" text-anchor="start" dominant-baseline="central">Process</text>
<rect x="332.0" y="956.0" width="14.0" height="14.0" rx="3" fill="#6B3F1D" stroke="#6B3F1D" stroke-width="0"/>
<text x="354.0" y="963.0" fill="#1F2937" font-size="12" font-family="Segoe UI, Calibri, Arial, sans-serif" font-weight="400" text-anchor="start" dominant-baseline="central">Decision</text>
<rect x="477.0" y="956.0" width="14.0" height="14.0" rx="3" fill="#3D2D56" stroke="#3D2D56" stroke-width="0"/>
<text x="499.0" y="963.0" fill="#1F2937" font-size="12" font-family="Segoe UI, Calibri, Arial, sans-serif" font-weight="400" text-anchor="start" dominant-baseline="central">Input / output</text>
<text x="28.0" y="900.0" fill="#6B7280" font-size="12" font-family="Segoe UI, Calibri, Arial, sans-serif" font-weight="400" text-anchor="start" dominant-baseline="central">Teachers can send notices; only HR/Headteacher/Super Admin can create parent accounts.</text>
<text x="1012.0" y="972.0" fill="#6B7280" font-size="11" font-family="Segoe UI, Calibri, Arial, sans-serif" font-weight="400" text-anchor="end" dominant-baseline="central">School SMS · process flowcharts</text>
</svg>
